<?xml version="1.0" encoding="UTF-8"?>
<svg version="1.1" xmlns="http://www.w3.org/2000/svg" width="2000" height="1500">
<path d="M0 0 C660 0 1320 0 2000 0 C2000 495 2000 990 2000 1500 C1340 1500 680 1500 0 1500 C0 1005 0 510 0 0 Z " fill="#FEFEFE" transform="translate(0,0)"/>
<path d="M0 0 C1.50145588 -0.00644929 3.00291057 -0.01317911 4.50436401 -0.02017212 C7.64958593 -0.03210501 10.79469848 -0.03585794 13.93994141 -0.03466797 C17.11660846 -0.03450666 20.29269126 -0.04819883 23.46923828 -0.07568359 C55.52272964 -0.34898661 94.09974839 0.50480405 118.66210938 24.27026367 C119.99659695 25.60960982 121.30765791 26.97217893 122.6171875 28.3359375 C123.63039063 29.35494141 123.63039063 29.35494141 124.6640625 30.39453125 C140.05188101 46.7696213 145.70379092 70.54458223 145.8203125 92.453125 C145.82601257 93.30915314 145.83171265 94.16518127 145.83758545 95.04714966 C145.84698347 96.85401191 145.8535486 98.6608909 145.85742188 100.46777344 C145.867038 103.16894402 145.89807387 105.86932275 145.9296875 108.5703125 C146.02040369 123.2814132 144.80611653 137.81308875 139.8046875 151.7734375 C139.54461914 152.51875732 139.28455078 153.26407715 139.01660156 154.03198242 C131.46516428 175.01249862 116.76486105 191.74278648 96.6171875 201.3359375 C72.34526434 212.12212875 47.13515699 212.67849711 21.03759766 212.59667969 C17.3352076 212.58520163 13.63310505 212.59192527 9.9307251 212.60382462 C7.03942745 212.61109242 4.14819677 212.60873429 1.25689697 212.60356903 C-0.76249382 212.60161835 -2.78188739 212.60760746 -4.80126953 212.61383057 C-16.82122567 212.55284227 -26.77241402 211.76767656 -35.6953125 203.0859375 C-40.07047537 195.95604245 -41.50234806 187.92185386 -41.52325439 179.65853882 C-41.52622552 179.00049244 -41.52919664 178.34244605 -41.5322578 177.66445887 C-41.54090579 175.46688533 -41.54244974 173.26936652 -41.54394531 171.07177734 C-41.54857635 169.49284754 -41.55360139 167.91391885 -41.55899048 166.33499146 C-41.57209125 162.04956207 -41.5785552 157.76414834 -41.58300114 153.47870207 C-41.58593635 150.79792923 -41.59004206 148.11716062 -41.59450531 145.43638992 C-41.60817574 137.03917345 -41.61784394 128.64196671 -41.6217072 120.24473989 C-41.62618333 110.56987175 -41.64371245 100.89514521 -41.6727078 91.22032011 C-41.69437085 83.73050983 -41.70441399 76.24073925 -41.70574832 68.750898 C-41.70679328 64.28317033 -41.71263468 59.81557585 -41.73056793 55.34788132 C-41.74712818 51.14041351 -41.74916582 46.93317786 -41.74042892 42.72568893 C-41.73966272 41.188694 -41.74394582 39.65168618 -41.75388718 38.11472321 C-41.88980439 15.77601782 -41.88980439 15.77601782 -34.109375 7.765625 C-24.39162076 -0.28120317 -11.95888351 0.01221129 0 0 Z " fill="#AE69DC" transform="translate(947.3828125,632.6640625)"/>
<path d="M0 0 C9.62387581 3.45172446 20.99533425 15.77191849 25.5703125 24.921875 C25.71010828 26.51631746 25.79768648 28.11547383 25.859375 29.71484375 C28.02121247 72.87216465 42.24634861 124.52448045 66.88671875 160.3984375 C68.5703125 162.921875 68.5703125 162.921875 68.5703125 164.921875 C72.32709344 161.58062965 74.50849755 157.90116938 76.8828125 153.546875 C77.27597656 152.83208984 77.66914062 152.11730469 78.07421875 151.38085938 C79.24845185 149.23254655 80.40980044 147.07762181 81.5703125 144.921875 C82.47330078 143.27832031 82.47330078 143.27832031 83.39453125 141.6015625 C100.01722313 110.06107022 111.8909595 70.60505669 112.82128906 34.81787109 C113.03617062 27.10430542 113.91843627 22.44341447 119.5703125 16.921875 C120.25738281 16.11492188 120.94445312 15.30796875 121.65234375 14.4765625 C131.39707584 3.04228842 131.39707584 3.04228842 137.5703125 -0.078125 C142.34715201 -0.04705613 145.0991147 2.71893111 148.3828125 5.859375 C149.16458862 6.59111938 149.16458862 6.59111938 149.9621582 7.33764648 C163.62677842 20.39176911 163.62677842 20.39176911 163.91357422 29.93725586 C164.60129038 85.12912306 132.69351688 169.77693001 94.86328125 211.1171875 C87.03954379 217.27488206 79.93693246 217.58169766 70.36206055 217.49829102 C68.14023932 217.48442136 65.92263909 217.51856394 63.70117188 217.55664062 C54.61268476 217.61004908 47.76479948 216.76819587 40.89477539 210.35864258 C36.85176421 205.98047274 33.95900374 200.85192308 31.0703125 195.671875 C30.56113281 194.76638916 30.05195312 193.86090332 29.52734375 192.92797852 C13.68504552 164.52068557 0.60261066 135.47760046 -10.36914062 104.86035156 C-11.05812432 102.95137187 -11.75929161 101.04672987 -12.47460938 99.14746094 C-20.33969468 78.17138411 -30.69145535 47.58673131 -26.4296875 24.921875 C-24.88574488 21.71766532 -22.91267955 19.43903667 -20.4296875 16.921875 C-19.46762206 15.73739658 -18.50922685 14.54992683 -17.5546875 13.359375 C-14.19128376 9.4914607 -10.39226866 6.16252842 -6.4296875 2.921875 C-5.79289063 2.33921875 -5.15609375 1.7565625 -4.5 1.15625 C-2.4296875 -0.078125 -2.4296875 -0.078125 0 0 Z " fill="#D16AC7" transform="translate(614.4296875,628.078125)"/>
<path d="M0 0 C3.91738964 1.38027164 6.47733163 3.61019792 9.39453125 6.4609375 C10.23612793 7.27558472 10.23612793 7.27558472 11.09472656 8.10668945 C12.23140979 9.22243719 13.36025622 10.34622725 14.48095703 11.47802734 C15.92180054 12.92502267 17.4039332 14.33062126 18.890625 15.73046875 C25.15062032 22.25087987 25.95077761 27.86659059 25.99609375 36.5078125 C26.10494224 56.05030328 32.45359848 76.13193968 38.08203125 94.6484375 C38.56192505 96.23507202 38.56192505 96.23507202 39.05151367 97.85375977 C41.31576583 105.13077497 44.08478409 112.084115 47.08203125 119.0859375 C47.88432503 121.0491039 48.68252018 123.0139504 49.4765625 124.98046875 C55.03891893 138.63972488 60.74579427 151.85700836 69.08203125 164.0859375 C72.71741983 160.83537609 75.00972603 157.12915653 77.33203125 152.8984375 C77.72261719 152.19066162 78.11320312 151.48288574 78.515625 150.75366211 C97.86417845 115.25391933 112.25803407 72.67844758 113.01123047 32.03637695 C113.35337674 24.48186715 115.98188767 20.53277908 121.08203125 15.0859375 C121.96761719 14.09762939 121.96761719 14.09762939 122.87109375 13.08935547 C124.58871354 11.2108289 126.35372976 9.39458751 128.14453125 7.5859375 C129.02334961 6.6578125 129.02334961 6.6578125 129.91992188 5.7109375 C132.58589713 3.01241427 134.58723054 1.2813365 138.1484375 -0.125 C142.23542486 0.16887126 144.20616803 2.16894916 146.95703125 4.9609375 C147.47515381 5.46254395 147.99327637 5.96415039 148.52709961 6.48095703 C163.57614555 21.22430829 163.57614555 21.22430829 164.43432617 27.77514648 C164.28460184 35.0167515 163.60023306 42.00736372 162.39453125 49.1484375 C162.21083984 50.24567139 162.02714844 51.34290527 161.83789062 52.47338867 C153.12860176 102.72407934 131.2789198 153.56515208 105.08203125 197.0859375 C104.48285889 198.09503174 104.48285889 198.09503174 103.87158203 199.12451172 C98.83375008 207.53135179 93.57294929 213.88734081 84.08203125 217.0859375 C79.55062899 217.47564399 75.01822586 217.45755845 70.47241211 217.45654297 C68.28614686 217.46090435 66.10192275 217.49722614 63.91601562 217.53515625 C54.92649018 217.60752958 48.69872134 216.91441221 41.51953125 210.9609375 C35.06612985 203.34923328 30.12347727 194.93680989 25.45703125 186.1484375 C24.85656982 185.02236084 24.2561084 183.89628418 23.63745117 182.73608398 C8.18809901 153.5189005 -4.65897564 123.50714912 -14.91796875 92.0859375 C-15.18335449 91.27447266 -15.44874023 90.46300781 -15.72216797 89.62695312 C-19.37339931 78.29605558 -21.82629147 66.79732144 -23.91796875 55.0859375 C-24.14613281 53.838125 -24.37429688 52.5903125 -24.609375 51.3046875 C-28.21397651 29.32418038 -28.21397651 29.32418038 -24.73828125 21.39453125 C-22.96742071 19.02632302 -21.07878028 17.10542229 -18.91796875 15.0859375 C-17.56251953 13.68021484 -17.56251953 13.68021484 -16.1796875 12.24609375 C-13.48652617 9.45868315 -10.74759299 6.7361018 -7.91796875 4.0859375 C-7.10585938 3.29832031 -6.29375 2.51070312 -5.45703125 1.69921875 C-2.91796875 0.0859375 -2.91796875 0.0859375 0 0 Z " fill="#F36CB2" transform="translate(311.91796875,627.9140625)"/>
<path d="M0 0 C5.95748614 2.0054073 10.08794909 7.77639966 14.25097656 12.30126953 C15.50483903 13.64561277 16.81583743 14.93643064 18.140625 16.2109375 C23.9674926 22.70269663 23.38107414 30.05085848 23.50830078 38.32714844 C23.82892358 57.60809631 33.15971957 72.10180424 45.7734375 85.93359375 C46.30791504 86.52301758 46.84239258 87.11244141 47.39306641 87.71972656 C53.94680535 94.95677099 53.94680535 94.95677099 60.7734375 101.93359375 C68.27611827 98.56637755 73.56985441 91.10163405 78.7734375 84.93359375 C79.4128125 84.18335938 80.0521875 83.433125 80.7109375 82.66015625 C93.23408002 67.54433188 99.89881383 53.5849486 100.0859375 34.05859375 C100.20299109 26.1638379 100.44588734 20.85349824 106.375 15.07421875 C107.16648437 14.3678125 107.95796875 13.66140625 108.7734375 12.93359375 C110.11018727 11.44305861 111.44664663 9.95211454 112.76391602 8.44433594 C115.59880233 5.20476502 118.18150416 2.32821597 121.7734375 -0.06640625 C125.98529202 0.00438122 128.14617777 1.82429989 131.07519531 4.72509766 C133.16957309 6.9203359 135.25040602 9.12562989 137.29736328 11.36523438 C138.57875879 12.72674359 139.94915769 14.00340937 141.33203125 15.26171875 C148.21257734 22.47341412 147.59384777 30.88435663 147.38256836 40.30175781 C146.83498381 52.9133426 144.17778381 63.47452134 138.7734375 74.93359375 C138.35449219 75.825625 137.93554688 76.71765625 137.50390625 77.63671875 C131.62069735 89.23359163 122.82188797 99.01575941 114.03515625 108.4921875 C112.09407091 110.58748688 110.20359648 112.71064263 108.3359375 114.87109375 C104.91221924 118.8128214 101.37711238 122.64965507 97.84033203 126.48950195 C94.53891656 130.08026397 91.29976149 133.71726718 88.11328125 137.41015625 C87.04455846 138.6253221 85.9177269 139.78930435 84.7734375 140.93359375 C84.47505946 144.0709936 84.47505946 144.0709936 84.53393555 147.81420898 C84.53192139 148.52169281 84.52990723 149.22917664 84.52783203 149.95809937 C84.52428301 151.49628241 84.52505795 153.03448003 84.52960777 154.57266045 C84.53518787 157.00597399 84.52606457 159.43880852 84.5124054 161.87208557 C84.47521859 168.79080301 84.4567523 175.70935935 84.46801758 182.62817383 C84.47386167 186.85823662 84.45564224 191.08762688 84.42212868 195.31755257 C84.41416129 196.93109318 84.41546983 198.54470682 84.42615318 200.15823174 C84.44044648 202.41409532 84.42424905 204.66783822 84.40112305 206.92358398 C84.40049362 208.2077269 84.3998642 209.49186981 84.3992157 210.81492615 C83.7734375 213.93359375 83.7734375 213.93359375 81.49046326 215.84745789 C78.98154767 216.85040134 77.341362 217.31231075 74.67333984 217.32177734 C73.90259125 217.33123383 73.13184265 217.34069031 72.33773804 217.35043335 C71.11094833 217.34132431 71.11094833 217.34132431 69.859375 217.33203125 C69.00791901 217.33490143 68.15646301 217.33777161 67.27920532 217.34072876 C65.48560925 217.34276439 63.69199073 217.33726963 61.8984375 217.32470703 C59.15053945 217.30860607 56.40410331 217.32459264 53.65625 217.34375 C51.91145509 217.34176826 50.16666108 217.33792601 48.421875 217.33203125 C47.59996674 217.33810394 46.77805847 217.34417664 45.9312439 217.35043335 C40.31699582 217.28098285 40.31699582 217.28098285 38.04946899 215.83180237 C36.1187894 212.95974736 36.45434183 210.60594373 36.515625 207.17407227 C36.52310257 206.49065262 36.53058014 205.80723297 36.5382843 205.10310364 C36.5552827 203.61834842 36.57853113 202.13365467 36.60726929 200.64908028 C36.64885629 198.28873083 36.66504841 195.92952163 36.6730957 193.5688324 C36.69695535 186.85705182 36.73732955 180.14648146 36.86572266 173.43579102 C36.94247527 169.32732927 36.96443446 165.22152915 36.95245361 161.11240959 C36.95804183 159.5563236 36.98339151 158.0001639 37.02996826 156.44476509 C37.24831026 148.91190875 37.13021656 142.70791752 31.97798157 136.77419186 C29.67215683 134.39062048 27.21700638 132.17450935 24.7734375 129.93359375 C23.22015083 128.10652818 21.69358267 126.25593628 20.2109375 124.37109375 C17.16181485 120.58146989 14.00682714 116.94833982 10.7109375 113.37109375 C6.14821331 108.40060684 1.91482334 103.2571143 -2.2265625 97.93359375 C-3.04253906 96.91265625 -3.85851563 95.89171875 -4.69921875 94.83984375 C-18.05922912 78.00714056 -24.37544413 62.90216915 -24.74145508 41.28295898 C-24.77308497 39.84663769 -24.82083324 38.41057721 -24.88500977 36.9753418 C-25.20999137 29.57373728 -25.40140947 23.44668136 -20.58984375 17.33203125 C-19.17073316 15.83167567 -17.71783518 14.3622461 -16.2265625 12.93359375 C-15.1143187 11.74503926 -14.00231198 10.55626282 -12.890625 9.3671875 C-11.88281868 8.36322776 -10.86993321 7.36433583 -9.8515625 6.37109375 C-9.33207031 5.85224609 -8.81257813 5.33339844 -8.27734375 4.79882812 C-3.32182141 -0.09907187 -3.32182141 -0.09907187 0 0 Z " fill="#8767F3" transform="translate(1294.2265625,628.06640625)"/>
<path d="M0 0 C9.88039594 3.55995945 17.93308265 15.48360835 23.55859375 23.921875 C23.81192684 26.46792793 23.81192684 26.46792793 23.81687927 29.57498169 C23.82712128 31.3412516 23.82712128 31.3412516 23.83757019 33.14320374 C23.83374077 35.08349709 23.83374077 35.08349709 23.82983398 37.06298828 C23.8342209 38.43797616 23.83952293 39.81296138 23.84567261 41.1879425 C23.85718025 44.15084585 23.86263261 47.11367761 23.863554 50.07660294 C23.86549481 54.76727039 23.88355071 59.45779012 23.90431213 64.14840698 C23.95350889 75.8044021 23.98433829 87.46043757 24.00561523 99.11651611 C24.02216254 108.16556186 24.04506077 117.21448146 24.08863598 126.26344287 C24.11034779 130.91997187 24.11847611 135.57626087 24.11624324 140.23283696 C24.11791816 143.14068895 24.13201737 146.04838636 24.14945602 148.95618248 C24.15766355 150.93323039 24.15115089 152.91032255 24.14408875 154.88737488 C24.21309576 164.7605117 24.21309576 164.7605117 27.55859375 173.921875 C30.95913908 176.8885901 33.72376652 177.29519954 38.15576172 177.29077148 C39.25395233 177.29765488 40.35214294 177.30453827 41.48361206 177.31163025 C43.24936081 177.30239281 43.24936081 177.30239281 45.05078125 177.29296875 C47.55468887 177.31035111 50.05859509 177.32793549 52.5625 177.34570312 C56.50149103 177.35577539 60.44039115 177.35937206 64.37939453 177.35766602 C68.18679819 177.36123948 71.99350222 177.38859698 75.80078125 177.41796875 C76.97389862 177.40978622 78.14701599 177.4016037 79.35568237 177.39317322 C89.93359907 177.48928524 95.17359271 181.00324594 102.49609375 188.359375 C103.08455078 188.91947266 103.67300781 189.47957031 104.27929688 190.05664062 C106.66978627 192.43602438 108.32889337 194.16410054 109.31640625 197.421875 C108.1151512 201.38477825 105.44644109 203.67621307 102.49609375 206.484375 C101.65401367 207.33032227 101.65401367 207.33032227 100.79492188 208.19335938 C95.22513424 213.63583758 90.15946293 217.34660305 82.22525024 217.45288086 C81.44483368 217.44321289 80.66441711 217.43354492 79.86035156 217.42358398 C78.5978508 217.43168846 78.5978508 217.43168846 77.30984497 217.43995667 C74.5434386 217.45240362 71.77808167 217.43597436 69.01171875 217.41796875 C67.07509304 217.41812389 65.13846701 217.41961535 63.20184326 217.42237854 C59.14679197 217.42376094 55.09209502 217.41123569 51.03710938 217.38842773 C45.86478323 217.36011986 40.69304886 217.362762 35.52067947 217.37551785 C31.52096598 217.38250925 27.52138671 217.37464514 23.52169037 217.36226082 C21.61610175 217.3577745 19.71049857 217.35738459 17.80490875 217.36132622 C-7.36916214 217.38901345 -7.36916214 217.38901345 -16.015625 210.4140625 C-25.22248566 200.77838915 -24.89123542 185.0521544 -24.87719727 172.64770508 C-24.88619372 171.04478765 -24.89640625 169.44187667 -24.9077301 167.838974 C-24.93402694 163.52100077 -24.94125445 159.20320628 -24.94317746 154.88516068 C-24.9453199 152.18207046 -24.95174303 149.47902476 -24.95966911 146.77594566 C-24.98734422 137.33147705 -24.99968312 127.88713479 -24.99731445 118.44262695 C-24.99550919 109.65933381 -25.0272427 100.87659163 -25.07454544 92.09343797 C-25.11382038 84.52960973 -25.12986437 76.96596146 -25.12794822 69.40203208 C-25.12718536 64.89408798 -25.13562425 60.38663555 -25.16748238 55.87879372 C-25.19661328 51.64227434 -25.19670566 47.40671431 -25.17493248 43.17016029 C-25.17180675 41.62102347 -25.17881388 40.07182588 -25.19701385 38.52279282 C-25.29661337 29.45483252 -24.6906037 22.91375287 -18.44140625 15.921875 C-17.76335937 15.06335938 -17.0853125 14.20484375 -16.38671875 13.3203125 C-4.28035902 -0.13697149 -4.28035902 -0.13697149 0 0 Z " fill="#A069E4" transform="translate(1154.44140625,628.078125)"/>
<path d="M0 0 C13.2717707 7.09838645 20.35613149 16.64253896 25.4296875 30.74609375 C31.32836391 52.66804042 29.57385513 81.0082042 19.578125 101.37890625 C17.51906113 104.68146345 15.23696395 107.54169655 12.578125 110.37890625 C11.99417969 111.00410156 11.41023438 111.62929688 10.80859375 112.2734375 C-2.40779071 125.04463848 -21.87659215 127.54311025 -39.421875 127.62890625 C-40.47632813 127.64953125 -41.53078125 127.67015625 -42.6171875 127.69140625 C-53.48705647 127.74589181 -53.48705647 127.74589181 -58.421875 124.37890625 C-62.52210687 118.02847563 -62.99590241 111.74030541 -62.92358398 104.37060547 C-62.92898697 103.30764252 -62.93438995 102.24467957 -62.93995667 101.14950562 C-62.95239238 97.66057898 -62.93598869 94.17248572 -62.91796875 90.68359375 C-62.91812383 88.24699867 -62.91961437 85.81040334 -62.92237854 83.37380981 C-62.92376015 78.27822913 -62.91124197 73.18293074 -62.88842773 68.08740234 C-62.86001406 61.56284842 -62.86279203 55.0387622 -62.87551785 48.51417351 C-62.88247834 43.48694884 -62.8746819 38.45983191 -62.86226082 33.432621 C-62.85775209 31.02691181 -62.85740445 28.62119103 -62.86132622 26.2154808 C-62.86424275 22.85288585 -62.84771035 19.49093184 -62.82592773 16.12841797 C-62.83042938 15.13914307 -62.83493103 14.14986816 -62.83956909 13.13061523 C-62.77850717 7.44543094 -62.16963308 3.39360524 -59.421875 -1.62109375 C-46.81711351 -13.59561717 -14.48346414 -6.77648113 0 0 Z " fill="#FEFEFE" transform="translate(1015.421875,678.62109375)"/>
<path d="M0 0 C3.5314562 1.19762428 5.8516905 3.26941599 8.5078125 5.7890625 C9.02899658 6.27431396 9.55018066 6.75956543 10.0871582 7.25952148 C23.50046529 20.10662211 23.50046529 20.10662211 23.82394695 28.08784389 C23.83079114 29.48241056 23.83200975 30.87701092 23.82902527 32.27159119 C23.83129083 33.03889118 23.83355638 33.80619118 23.83589059 34.59674269 C23.84224782 37.18161632 23.84140013 39.76643775 23.84057617 42.35131836 C23.84356658 44.1989397 23.84696883 46.04656041 23.85075378 47.8941803 C23.85960974 52.92303187 23.86193256 57.95186644 23.86256957 62.98072505 C23.86351734 67.17329323 23.86719409 71.36585741 23.87074167 75.55842406 C23.87889218 85.44642212 23.88132534 95.33441107 23.88061523 105.22241211 C23.88001418 115.43572562 23.89057024 125.64898636 23.9063589 135.86228651 C23.91941665 144.61984092 23.92479988 153.37737804 23.92415982 162.13494211 C23.92390433 167.37037004 23.92678378 172.60575109 23.93733788 177.84116936 C23.9469893 182.76342746 23.94711844 187.68559358 23.93982124 192.60785484 C23.93877173 194.41749963 23.94115988 196.22715005 23.9471817 198.03678513 C23.95485299 200.50114977 23.95028937 202.96519288 23.94255066 205.42955017 C23.94769422 206.15094569 23.95283779 206.8723412 23.95813721 207.61559719 C23.93259574 211.27908283 23.78721086 212.77621496 21.6953125 215.9140625 C17.7846223 217.2176259 14.05330893 217.07655335 9.9765625 217.08203125 C9.12227661 217.08535965 8.26799072 217.08868805 7.38781738 217.09211731 C5.58228087 217.09717804 3.77673501 217.0995259 1.97119141 217.09936523 C-0.79410127 217.10155412 -3.55899653 217.11972526 -6.32421875 217.13867188 C-8.07812363 217.14160546 -9.83203041 217.14359049 -11.5859375 217.14453125 C-12.41411987 217.15171677 -13.24230225 217.15890228 -14.09558105 217.16630554 C-18.01494932 217.1506635 -19.96950853 217.13751515 -23.3046875 214.9140625 C-24.48169179 211.38304964 -24.45923388 208.18911842 -24.46531677 204.51461792 C-24.47040459 203.75478045 -24.47549241 202.99494297 -24.48073441 202.21208012 C-24.49646878 199.65815289 -24.5049866 197.10425399 -24.51342773 194.55029297 C-24.52296549 192.72211019 -24.53285662 190.89392922 -24.54307556 189.06575012 C-24.57447264 183.0542719 -24.59473013 177.0427798 -24.61328125 171.03125 C-24.61657857 170.00838347 -24.61987589 168.98551694 -24.62327313 167.93165445 C-24.65405672 158.28400259 -24.68076333 148.63634761 -24.69769192 138.98866081 C-24.71959445 126.65104541 -24.76155525 114.31386543 -24.83112949 101.9764241 C-24.87839365 93.30028869 -24.9026288 84.62427066 -24.9098888 75.94801056 C-24.91484178 70.76698834 -24.92988908 65.58645679 -24.9696331 60.4055748 C-25.00655488 55.52823831 -25.01489092 50.65167159 -25.00162697 45.77422142 C-25.00168083 43.98802928 -25.01194036 42.20180255 -25.0333786 40.41573906 C-25.14157038 30.88967795 -25.20338185 23.24518671 -18.3046875 15.9140625 C-17.86786872 15.38204161 -17.43104994 14.85002071 -16.98099422 14.30187798 C-4.99326406 -0.18618951 -4.99326406 -0.18618951 0 0 Z " fill="#E46CBB" transform="translate(532.3046875,628.0859375)"/>
<path d="M0 0 C2.80985687 0.90903953 4.07208722 1.86518085 6.13085938 3.95361328 C6.76894531 4.59556641 7.40703125 5.23751953 8.06445312 5.89892578 C9.04091797 6.91212891 9.04091797 6.91212891 10.03710938 7.94580078 C11.01357422 8.92419922 11.01357422 8.92419922 12.00976562 9.92236328 C23.06526672 21.17887349 23.06526672 21.17887349 23.19650221 28.70944858 C23.18398436 29.43018345 23.17146651 30.15091833 23.15856934 30.89349365 C23.16815257 32.06922782 23.16815257 32.06922782 23.1779294 33.26871419 C23.19312006 35.88002953 23.17275904 38.48981311 23.15234375 41.10107422 C23.15584663 42.97899375 23.16150708 44.8569103 23.16915894 46.7348175 C23.18338864 51.82348287 23.16636548 56.91160674 23.14287376 62.0002203 C23.12275483 67.325279 23.12864466 72.65031546 23.13098145 77.97540283 C23.1309279 86.91305468 23.11118444 95.8504949 23.07910156 104.78808594 C23.04216502 115.12822717 23.03343249 125.46809165 23.04039907 135.80829024 C23.0466974 145.75289005 23.03596512 155.69739477 23.01643372 165.6419754 C23.008249 169.87637942 23.00555211 174.11073491 23.00712585 178.34514618 C23.00800287 183.32582733 22.99383828 188.30624424 22.96789932 193.2868557 C22.96072023 195.11745358 22.95866224 196.94807954 22.96201706 198.77868843 C22.96571492 201.27142918 22.95104444 203.76339141 22.93151855 206.25604248 C22.93951044 207.35052912 22.93951044 207.35052912 22.94766378 208.46712661 C22.90890164 211.32180139 22.84903422 213.34539889 21.25926971 215.76834488 C18.07052169 217.71706975 14.26728844 217.26698579 10.63476562 217.25439453 C9.76065536 217.25963638 8.8865451 217.26487823 7.98594666 217.27027893 C6.13753318 217.27670136 4.28907885 217.27535926 2.44067383 217.2668457 C-0.38664646 217.25834212 -3.21194223 217.28708226 -6.0390625 217.31884766 C-7.83528585 217.32045993 -9.63151278 217.31988164 -11.42773438 217.31689453 C-12.27262924 217.32812851 -13.11752411 217.33936249 -13.98802185 217.35093689 C-14.77886673 217.34155594 -15.56971161 217.33217499 -16.38452148 217.32250977 C-17.07718613 217.3223436 -17.76985077 217.32217743 -18.48350525 217.32200623 C-21.47884684 216.5635478 -22.56614145 215.24677541 -24.46289062 212.82080078 C-24.86446114 210.15701292 -25.02077655 207.90205984 -24.9977417 205.2386322 C-25.00680393 204.47118433 -25.01586615 203.70373646 -25.02520299 202.91303259 C-25.05054232 200.33899433 -25.04724735 197.76579965 -25.04394531 195.19165039 C-25.05591325 193.3468517 -25.06952374 191.50206305 -25.08465576 189.6572876 C-25.12002943 184.64242958 -25.12936904 179.6278445 -25.13191891 174.61287379 C-25.13476156 171.47762573 -25.14330023 168.34244709 -25.15390778 165.20721626 C-25.19093432 154.26269247 -25.20724681 143.31836365 -25.20410156 132.3737793 C-25.20170177 122.18410812 -25.24383834 111.99528631 -25.30707622 101.80582994 C-25.35946918 93.05062004 -25.3808332 84.29568679 -25.37827992 75.54032141 C-25.37726209 70.3144441 -25.3885461 65.08932048 -25.43099213 59.86359978 C-25.46986991 54.94248994 -25.46993286 50.02284775 -25.4409256 45.10168457 C-25.43676 43.30182807 -25.44608885 41.50187843 -25.47036743 39.70218086 C-25.61275536 28.41002967 -24.6917614 21.33869146 -16.46289062 12.82080078 C-15.92545101 12.21888885 -15.3880114 11.61697691 -14.83428574 10.99682522 C-13.4931074 9.53314516 -12.07438073 8.14154725 -10.65039062 6.75830078 C-9.73644531 5.85982422 -8.8225 4.96134766 -7.88085938 4.03564453 C-3.21937928 -0.23424112 -3.21937928 -0.23424112 0 0 Z " fill="#C569CD" transform="translate(835.462890625,628.17919921875)"/>
</svg>
