<svg version="1.1" id="Layer_1" xmlns="http://www.w3.org/2000/svg" xmlns:xlink="http://www.w3.org/1999/xlink" x="0px" y="0px"
	 width="100%" viewBox="0 0 2000 1500" enable-background="new 0 0 2000 1500" xml:space="preserve">
<path fill="#FFFFFF" opacity="1.000000" stroke="none" 
	d="
M1854.000000,1501.000000 
	C1236.000244,1501.000000 618.500366,1501.000000 1.000414,1501.000000 
	C1.000276,1001.000305 1.000276,501.000671 1.000138,1.000750 
	C667.666138,1.000500 1334.332275,1.000500 2000.998779,1.000250 
	C2000.999268,500.999298 2000.999268,1000.998596 2000.999634,1500.999023 
	C1952.166626,1501.000000 1903.333374,1501.000000 1854.000000,1501.000000 
M1030.774902,839.997498 
	C1059.739258,831.636780 1078.621582,812.858337 1087.965698,784.375183 
	C1094.994873,762.948303 1095.630493,740.797974 1093.415161,718.715149 
	C1092.267822,707.278748 1089.685547,695.578735 1085.400024,684.945557 
	C1074.869385,658.816772 1054.437866,644.136963 1026.356445,638.492249 
	C1005.788696,633.750488 984.916748,633.728516 963.085632,634.253052 
	C952.436890,634.517883 941.767578,634.458130 931.144531,635.129150 
	C917.666382,635.980469 910.094971,643.039368 908.097717,656.385864 
	C907.215454,662.281799 906.913635,668.312317 906.900146,674.282959 
	C906.803101,717.280823 906.841431,760.279053 906.856873,803.277161 
	C906.858459,807.776001 906.679504,812.305542 907.119568,816.768127 
	C908.630798,832.094360 911.565002,843.387329 932.580139,845.144531 
	C943.330505,846.043518 954.191406,845.620667 965.931274,845.929382 
	C975.906738,845.911377 985.955383,846.642883 995.838562,845.678894 
	C1007.301147,844.560974 1018.618530,841.954224 1030.774902,839.997498 
M384.280792,792.056702 
	C381.500916,795.752014 380.804871,792.026306 380.014160,790.634094 
	C356.565094,749.349609 341.538330,705.394592 337.894440,657.804077 
	C337.680756,655.013367 336.664001,651.729736 334.859100,649.717651 
	C329.101593,643.299194 322.768097,637.399780 316.713074,631.244812 
	C313.734192,628.216797 310.689728,628.554565 307.949585,631.241943 
	C301.663879,637.406494 295.288025,643.520386 289.531067,650.159790 
	C287.576599,652.413879 286.361084,656.246216 286.550690,659.247314 
	C287.135895,668.510620 288.003418,677.828674 289.762024,686.932190 
	C295.945587,718.941467 306.858887,749.478516 320.819092,778.819153 
	C329.736481,797.561096 340.095734,815.625366 350.050964,833.861084 
	C354.057373,841.199890 360.567322,845.416077 369.023193,845.857727 
	C374.664398,846.152405 380.337341,845.840027 386.903595,845.933899 
	C399.442230,847.135742 407.985992,841.567627 414.480743,831.008728 
	C436.229553,795.650879 452.714874,757.956299 465.089661,718.435486 
	C471.402679,698.273865 477.218506,677.927856 475.958496,656.408020 
	C475.846375,654.492371 475.726593,652.070068 474.586731,650.806274 
	C468.474243,644.028809 462.078888,637.503235 455.691742,630.978271 
	C453.122498,628.353577 450.144501,628.615601 447.719116,631.048401 
	C441.507446,637.279175 435.341339,643.571228 429.497772,650.141907 
	C428.000122,651.825867 427.153778,654.605591 427.046417,656.929871 
	C425.925690,681.188477 420.828156,704.680542 413.668579,727.776733 
	C406.698395,750.261841 397.517761,771.769470 384.280792,792.056702 
M1375.103394,844.787170 
	C1376.459839,842.003357 1378.942749,839.239136 1378.991699,836.432495 
	C1379.334229,816.776184 1379.414673,797.106384 1379.025513,777.451843 
	C1378.911621,771.705566 1381.186523,767.680115 1384.715698,763.850647 
	C1394.186523,753.574097 1403.897217,743.509949 1413.123047,733.018616 
	C1424.268799,720.344177 1434.690063,707.062561 1439.171387,690.336487 
	C1445.129272,668.099609 1444.760132,647.387451 1423.770142,632.217896 
	C1423.502930,632.024841 1423.275757,631.769958 1423.053223,631.522766 
	C1420.213623,628.366272 1417.277954,628.559631 1414.465454,631.455566 
	C1410.522217,635.515747 1406.703613,639.696655 1402.807373,643.802856 
	C1397.184814,649.728394 1393.899780,656.388367 1394.946167,664.918884 
	C1396.690430,679.138306 1391.777710,691.402222 1383.192139,702.470947 
	C1380.043213,706.530579 1377.015625,710.684204 1373.336304,715.120850 
	C1367.967529,720.911743 1362.598633,726.702637 1356.980591,732.762329 
	C1349.917114,725.190308 1343.199951,718.464478 1337.029053,711.270081 
	C1325.987915,698.397949 1316.907715,684.236511 1318.226196,666.481934 
	C1319.067871,655.145020 1314.887451,646.903320 1307.157349,639.606689 
	C1305.946533,638.463867 1304.841187,637.210083 1303.652710,636.042786 
	C1294.695557,627.246277 1294.674927,627.229370 1285.459717,635.633667 
	C1275.302246,644.897461 1268.415039,654.982910 1269.681885,670.206177 
	C1271.147339,687.816162 1275.137939,703.977173 1286.454590,717.728027 
	C1300.421631,734.699524 1314.755493,751.369324 1328.717041,768.345276 
	C1330.427246,770.424744 1331.656738,773.578125 1331.689087,776.250977 
	C1331.933716,796.411743 1331.806641,816.576721 1331.831665,836.740417 
	C1331.841064,844.302246 1333.402344,845.914795 1340.816162,845.957458 
	C1350.481079,846.013123 1360.147095,846.023499 1369.811157,845.919556 
	C1371.314819,845.903381 1372.810913,845.175659 1375.103394,844.787170 
M706.603638,842.542419 
	C709.851990,839.039978 713.742432,835.942810 716.248901,831.972107 
	C740.307129,793.859314 757.767029,752.762146 770.366089,709.590515 
	C775.256042,692.834656 779.610657,675.858887 779.042847,658.154907 
	C778.956970,655.476135 778.460876,652.160767 776.831055,650.297791 
	C770.935181,643.558716 764.639465,637.136780 758.088501,631.030884 
	C756.775391,629.806946 752.666748,629.431274 751.569580,630.475098 
	C744.365601,637.328552 737.511719,644.568604 730.856323,651.963989 
	C729.592285,653.368591 729.301331,656.025757 729.279297,658.112488 
	C729.079285,677.065125 725.646240,695.553284 720.235474,713.565674 
	C715.128174,730.567993 708.769714,747.194458 702.444519,764.430237 
	C696.989929,774.383179 691.535339,784.336121 685.615417,795.138184 
	C684.097046,792.924927 683.501465,792.157349 683.011169,791.327637 
	C660.362366,753.001770 646.675415,711.526245 641.399048,667.497375 
	C639.924072,655.189575 636.318176,645.330872 626.808777,637.606812 
	C624.356445,635.614929 621.968140,633.534973 619.654541,631.383606 
	C616.531616,628.479614 613.397461,628.426758 610.406128,631.358765 
	C604.356567,637.288391 598.130127,643.080688 592.581970,649.456482 
	C590.516113,651.830383 589.110107,655.707703 589.201477,658.847168 
	C589.431580,666.762939 590.258362,674.722351 591.603149,682.533936 
	C596.651184,711.857117 605.917664,739.996582 618.289612,766.914551 
	C628.687744,789.538086 640.826660,811.367798 652.403687,833.439392 
	C655.706909,839.737000 660.998047,844.794128 668.212646,845.215088 
	C679.102112,845.850525 690.074524,845.203796 701.004211,844.861755 
	C702.683777,844.809143 704.323120,843.470825 706.603638,842.542419 
M1168.897095,640.620544 
	C1165.535034,637.391968 1162.181519,634.154236 1158.807861,630.937866 
	C1156.298096,628.544983 1153.751343,628.614197 1151.361572,631.061951 
	C1146.250000,636.297302 1141.160889,641.555725 1136.127563,646.866272 
	C1132.250244,650.957153 1131.027466,655.836182 1131.044922,661.493408 
	C1131.188477,708.153503 1131.088623,754.814331 1131.168945,801.474731 
	C1131.180176,807.955139 1131.541138,814.455994 1132.142212,820.909973 
	C1133.469971,835.170044 1140.792236,843.259460 1153.823120,844.881958 
	C1159.092285,845.538086 1164.430420,845.903992 1169.739502,845.930054 
	C1192.735840,846.042786 1215.736084,846.161316 1238.727539,845.805481 
	C1242.553101,845.746277 1246.871582,844.088989 1250.022827,841.848633 
	C1254.582764,838.606750 1258.283569,834.157043 1262.355225,830.227112 
	C1264.897461,827.773132 1264.840088,825.245972 1262.390015,822.841370 
	C1258.350952,818.877380 1254.228882,814.997986 1250.129272,811.095947 
	C1246.805542,807.932373 1242.903320,806.879395 1238.280273,806.971252 
	C1225.286865,807.229675 1212.285889,807.132874 1199.287842,807.124268 
	C1182.296997,807.113037 1178.976074,803.757141 1178.969604,786.569397 
	C1178.954102,744.908203 1178.866821,703.246521 1179.071655,661.586365 
	C1179.101562,655.511353 1177.580933,650.512939 1173.538940,646.125488 
	C1172.074341,644.535767 1170.771484,642.797058 1168.897095,640.620544 
M556.923706,743.500000 
	C556.923645,715.508545 556.989624,687.516663 556.827881,659.526123 
	C556.810425,656.509888 556.322205,652.834595 554.584106,650.614685 
	C549.473694,644.087646 543.632324,638.131958 538.060059,631.967957 
	C534.615784,628.157898 531.102600,628.580078 527.825256,632.096619 
	C522.612549,637.689697 517.221741,643.163025 512.530518,649.174133 
	C510.553406,651.707520 509.206451,655.477539 509.195953,658.690674 
	C509.002075,718.171814 509.044739,777.653870 509.065979,837.135681 
	C509.068481,844.068665 510.971863,845.916321 518.066895,845.958435 
	C527.730286,846.015747 537.394348,845.996765 547.057983,845.968384 
	C555.291504,845.944214 556.916016,844.296204 556.919128,835.972046 
	C556.930603,805.481384 556.923584,774.990662 556.923706,743.500000 
M859.235962,757.500000 
	C859.235901,725.677490 859.065796,693.853271 859.374634,662.033752 
	C859.438965,655.406250 857.877258,649.951965 853.401733,645.272461 
	C848.917847,640.583984 844.351379,635.974304 839.807678,631.343262 
	C837.088989,628.572388 834.174316,628.481506 831.532776,631.258362 
	C825.918762,637.159912 820.180054,642.983154 815.079468,649.311584 
	C813.181702,651.666321 812.056641,655.341003 812.047791,658.417969 
	C811.875916,718.063904 811.913330,777.710449 811.935181,837.356873 
	C811.937683,844.141724 813.717407,845.909546 820.527832,845.953369 
	C830.190796,846.015564 839.854492,845.989136 849.517883,845.973267 
	C857.725586,845.959839 859.219910,844.526306 859.227051,836.473572 
	C859.250061,810.482361 859.236084,784.491211 859.235962,757.500000 
z"/>
<path fill="#A268E3" opacity="1.000000" stroke="none" 
	d="
M1169.145996,640.873413 
	C1170.771484,642.797058 1172.074341,644.535767 1173.538940,646.125488 
	C1177.580933,650.512939 1179.101562,655.511353 1179.071655,661.586365 
	C1178.866821,703.246521 1178.954102,744.908203 1178.969604,786.569397 
	C1178.976074,803.757141 1182.296997,807.113037 1199.287842,807.124268 
	C1212.285889,807.132874 1225.286865,807.229675 1238.280273,806.971252 
	C1242.903320,806.879395 1246.805542,807.932373 1250.129272,811.095947 
	C1254.228882,814.997986 1258.350952,818.877380 1262.390015,822.841370 
	C1264.840088,825.245972 1264.897461,827.773132 1262.355225,830.227112 
	C1258.283569,834.157043 1254.582764,838.606750 1250.022827,841.848633 
	C1246.871582,844.088989 1242.553101,845.746277 1238.727539,845.805481 
	C1215.736084,846.161316 1192.735840,846.042786 1169.739502,845.930054 
	C1164.430420,845.903992 1159.092285,845.538086 1153.823120,844.881958 
	C1140.792236,843.259460 1133.469971,835.170044 1132.142212,820.909973 
	C1131.541138,814.455994 1131.180176,807.955139 1131.168945,801.474731 
	C1131.088623,754.814331 1131.188477,708.153503 1131.044922,661.493408 
	C1131.027466,655.836182 1132.250244,650.957153 1136.127563,646.866272 
	C1141.160889,641.555725 1146.250000,636.297302 1151.361572,631.061951 
	C1153.751343,628.614197 1156.298096,628.544983 1158.807861,630.937866 
	C1162.181519,634.154236 1165.535034,637.391968 1169.145996,640.873413 
z"/>
<path fill="#D86BC3" opacity="1.000000" stroke="none" 
	d="
M705.981018,842.727173 
	C704.323120,843.470825 702.683777,844.809143 701.004211,844.861755 
	C690.074524,845.203796 679.102112,845.850525 668.212646,845.215088 
	C660.998047,844.794128 655.706909,839.737000 652.403687,833.439392 
	C640.826660,811.367798 628.687744,789.538086 618.289612,766.914551 
	C605.917664,739.996582 596.651184,711.857117 591.603149,682.533936 
	C590.258362,674.722351 589.431580,666.762939 589.201477,658.847168 
	C589.110107,655.707703 590.516113,651.830383 592.581970,649.456482 
	C598.130127,643.080688 604.356567,637.288391 610.406128,631.358765 
	C613.397461,628.426758 616.531616,628.479614 619.654541,631.383606 
	C621.968140,633.534973 624.356445,635.614929 626.808777,637.606812 
	C636.318176,645.330872 639.924072,655.189575 641.399048,667.497375 
	C646.675415,711.526245 660.362366,753.001770 683.011169,791.327637 
	C683.501465,792.157349 684.097046,792.924927 685.615417,795.138184 
	C691.535339,784.336121 696.989929,774.383179 703.053223,764.402466 
	C704.107178,766.230469 704.931946,768.084595 704.939575,769.942200 
	C705.029846,791.755188 704.966492,813.568848 705.040710,835.381958 
	C705.049072,837.831360 705.653198,840.278748 705.981018,842.727173 
z"/>
<path fill="#B669D7" opacity="1.000000" stroke="none" 
	d="
M965.002319,845.795227 
	C954.191406,845.620667 943.330505,846.043518 932.580139,845.144531 
	C911.565002,843.387329 908.630798,832.094360 907.119568,816.768127 
	C906.679504,812.305542 906.858459,807.776001 906.856873,803.277161 
	C906.841431,760.279053 906.803101,717.280823 906.900146,674.282959 
	C906.913635,668.312317 907.215454,662.281799 908.097717,656.385864 
	C910.094971,643.039368 917.666382,635.980469 931.144531,635.129150 
	C941.767578,634.458130 952.436890,634.517883 963.543213,634.793152 
	C964.000671,648.148926 964.000671,660.964661 963.660034,673.900269 
	C958.333740,675.611938 955.729431,679.185669 954.959656,684.209290 
	C954.608276,686.501953 954.209045,688.820740 954.205688,691.128235 
	C954.158569,723.769714 954.128784,756.411377 954.211182,789.052734 
	C954.231384,797.070557 955.670288,804.484741 964.998779,807.504272 
	C965.000549,820.578796 965.001404,833.187012 965.002319,845.795227 
z"/>
<path fill="#8867F3" opacity="1.000000" stroke="none" 
	d="
M1374.310547,844.776978 
	C1372.810913,845.175659 1371.314819,845.903381 1369.811157,845.919556 
	C1360.147095,846.023499 1350.481079,846.013123 1340.816162,845.957458 
	C1333.402344,845.914795 1331.841064,844.302246 1331.831665,836.740417 
	C1331.806641,816.576721 1331.933716,796.411743 1331.689087,776.250977 
	C1331.656738,773.578125 1330.427246,770.424744 1328.717041,768.345276 
	C1314.755493,751.369324 1300.421631,734.699524 1286.454590,717.728027 
	C1275.137939,703.977173 1271.147339,687.816162 1269.681885,670.206177 
	C1268.415039,654.982910 1275.302246,644.897461 1285.459717,635.633667 
	C1294.674927,627.229370 1294.695557,627.246277 1303.652710,636.042786 
	C1304.841187,637.210083 1305.946533,638.463867 1307.157349,639.606689 
	C1314.887451,646.903320 1319.067871,655.145020 1318.226196,666.481934 
	C1316.907715,684.236511 1325.987915,698.397949 1337.029053,711.270081 
	C1343.199951,718.464478 1349.917114,725.190308 1356.980591,732.762329 
	C1362.598633,726.702637 1367.967529,720.911743 1373.655518,715.442383 
	C1373.983154,756.450256 1373.986450,797.136719 1374.013306,837.823120 
	C1374.014893,840.141113 1374.207031,842.459045 1374.310547,844.776978 
z"/>
<path fill="#F96DAF" opacity="1.000000" stroke="none" 
	d="
M385.996063,845.799255 
	C380.337341,845.840027 374.664398,846.152405 369.023193,845.857727 
	C360.567322,845.416077 354.057373,841.199890 350.050964,833.861084 
	C340.095734,815.625366 329.736481,797.561096 320.819092,778.819153 
	C306.858887,749.478516 295.945587,718.941467 289.762024,686.932190 
	C288.003418,677.828674 287.135895,668.510620 286.550690,659.247314 
	C286.361084,656.246216 287.576599,652.413879 289.531067,650.159790 
	C295.288025,643.520386 301.663879,637.406494 307.949585,631.241943 
	C310.689728,628.554565 313.734192,628.216797 316.713074,631.244812 
	C322.768097,637.399780 329.101593,643.299194 334.859100,649.717651 
	C336.664001,651.729736 337.680756,655.013367 337.894440,657.804077 
	C341.538330,705.394592 356.565094,749.349609 380.014160,790.634094 
	C380.804871,792.026306 381.500916,795.752014 384.734283,792.274902 
	C385.458527,794.441956 385.956421,796.389893 385.964111,798.339722 
	C386.026672,814.159363 385.997375,829.979370 385.996063,845.799255 
z"/>
<path fill="#E56CBB" opacity="1.000000" stroke="none" 
	d="
M556.923645,744.000000 
	C556.923584,774.990662 556.930603,805.481384 556.919128,835.972046 
	C556.916016,844.296204 555.291504,845.944214 547.057983,845.968384 
	C537.394348,845.996765 527.730286,846.015747 518.066895,845.958435 
	C510.971863,845.916321 509.068481,844.068665 509.065979,837.135681 
	C509.044739,777.653870 509.002075,718.171814 509.195953,658.690674 
	C509.206451,655.477539 510.553406,651.707520 512.530518,649.174133 
	C517.221741,643.163025 522.612549,637.689697 527.825256,632.096619 
	C531.102600,628.580078 534.615784,628.157898 538.060059,631.967957 
	C543.632324,638.131958 549.473694,644.087646 554.584106,650.614685 
	C556.322205,652.834595 556.810425,656.509888 556.827881,659.526123 
	C556.989624,687.516663 556.923645,715.508545 556.923645,744.000000 
z"/>
<path fill="#C56ACE" opacity="1.000000" stroke="none" 
	d="
M859.236206,758.000000 
	C859.236084,784.491211 859.250061,810.482361 859.227051,836.473572 
	C859.219910,844.526306 857.725586,845.959839 849.517883,845.973267 
	C839.854492,845.989136 830.190796,846.015564 820.527832,845.953369 
	C813.717407,845.909546 811.937683,844.141724 811.935181,837.356873 
	C811.913330,777.710449 811.875916,718.063904 812.047791,658.417969 
	C812.056641,655.341003 813.181702,651.666321 815.079468,649.311584 
	C820.180054,642.983154 825.918762,637.159912 831.532776,631.258362 
	C834.174316,628.481506 837.088989,628.572388 839.807678,631.343262 
	C844.351379,635.974304 848.917847,640.583984 853.401733,645.272461 
	C857.877258,649.951965 859.438965,655.406250 859.374634,662.033752 
	C859.065796,693.853271 859.235901,725.677490 859.236206,758.000000 
z"/>
<path fill="#ED6CB6" opacity="1.000000" stroke="none" 
	d="
M386.449829,845.866577 
	C385.997375,829.979370 386.026672,814.159363 385.964111,798.339722 
	C385.956421,796.389893 385.458527,794.441956 384.999725,792.083740 
	C397.517761,771.769470 406.698395,750.261841 413.668579,727.776733 
	C420.828156,704.680542 425.925690,681.188477 427.046417,656.929871 
	C427.153778,654.605591 428.000122,651.825867 429.497772,650.141907 
	C435.341339,643.571228 441.507446,637.279175 447.719116,631.048401 
	C450.144501,628.615601 453.122498,628.353577 455.691742,630.978271 
	C462.078888,637.503235 468.474243,644.028809 474.586731,650.806274 
	C475.726593,652.070068 475.846375,654.492371 475.958496,656.408020 
	C477.218506,677.927856 471.402679,698.273865 465.089661,718.435486 
	C452.714874,757.956299 436.229553,795.650879 414.480743,831.008728 
	C407.985992,841.567627 399.442230,847.135742 386.449829,845.866577 
z"/>
<path fill="#A569E1" opacity="1.000000" stroke="none" 
	d="
M1026.998901,638.881531 
	C1054.437866,644.136963 1074.869385,658.816772 1085.400024,684.945557 
	C1089.685547,695.578735 1092.267822,707.278748 1093.415161,718.715149 
	C1095.630493,740.797974 1094.994873,762.948303 1087.965698,784.375183 
	C1078.621582,812.858337 1059.739258,831.636780 1030.387451,839.527466 
	C1030.000000,824.655579 1030.062622,810.253174 1029.913086,795.852966 
	C1029.896118,794.230896 1028.681030,792.621399 1028.166138,790.704956 
	C1032.171509,783.701782 1037.053711,777.374268 1039.677490,770.218628 
	C1044.908203,755.953186 1044.843262,740.825378 1043.666382,725.869019 
	C1042.451904,710.434998 1037.994995,696.171326 1025.913452,684.998535 
	C1026.327759,682.282654 1026.938354,680.010132 1026.954712,677.733459 
	C1027.047974,664.783386 1026.999268,651.832275 1026.998901,638.881531 
z"/>
<path fill="#CA6BCB" opacity="1.000000" stroke="none" 
	d="
M706.292358,842.634766 
	C705.653198,840.278748 705.049072,837.831360 705.040710,835.381958 
	C704.966492,813.568848 705.029846,791.755188 704.939575,769.942200 
	C704.931946,768.084595 704.107178,766.230469 703.311829,764.180420 
	C708.769714,747.194458 715.128174,730.567993 720.235474,713.565674 
	C725.646240,695.553284 729.079285,677.065125 729.279297,658.112488 
	C729.301331,656.025757 729.592285,653.368591 730.856323,651.963989 
	C737.511719,644.568604 744.365601,637.328552 751.569580,630.475098 
	C752.666748,629.431274 756.775391,629.806946 758.088501,631.030884 
	C764.639465,637.136780 770.935181,643.558716 776.831055,650.297791 
	C778.460876,652.160767 778.956970,655.476135 779.042847,658.154907 
	C779.610657,675.858887 775.256042,692.834656 770.366089,709.590515 
	C757.767029,752.762146 740.307129,793.859314 716.248901,831.972107 
	C713.742432,835.942810 709.851990,839.039978 706.292358,842.634766 
z"/>
<path fill="#8168F7" opacity="1.000000" stroke="none" 
	d="
M1374.707031,844.782104 
	C1374.207031,842.459045 1374.014893,840.141113 1374.013306,837.823120 
	C1373.986450,797.136719 1373.983154,756.450256 1373.953857,715.279419 
	C1377.015625,710.684204 1380.043213,706.530579 1383.192139,702.470947 
	C1391.777710,691.402222 1396.690430,679.138306 1394.946167,664.918884 
	C1393.899780,656.388367 1397.184814,649.728394 1402.807373,643.802856 
	C1406.703613,639.696655 1410.522217,635.515747 1414.465454,631.455566 
	C1417.277954,628.559631 1420.213623,628.366272 1423.053223,631.522766 
	C1423.275757,631.769958 1423.502930,632.024841 1423.770142,632.217896 
	C1444.760132,647.387451 1445.129272,668.099609 1439.171387,690.336487 
	C1434.690063,707.062561 1424.268799,720.344177 1413.123047,733.018616 
	C1403.897217,743.509949 1394.186523,753.574097 1384.715698,763.850647 
	C1381.186523,767.680115 1378.911621,771.705566 1379.025513,777.451843 
	C1379.414673,797.106384 1379.334229,816.776184 1378.991699,836.432495 
	C1378.942749,839.239136 1376.459839,842.003357 1374.707031,844.782104 
z"/>
<path fill="#AD69DD" opacity="1.000000" stroke="none" 
	d="
M1028.021606,791.006042 
	C1028.681030,792.621399 1029.896118,794.230896 1029.913086,795.852966 
	C1030.062622,810.253174 1030.000000,824.655579 1029.999512,839.525513 
	C1018.618530,841.954224 1007.301147,844.560974 995.838562,845.678894 
	C985.955383,846.642883 975.906738,845.911377 965.466797,845.862305 
	C965.001404,833.187012 965.000549,820.578796 965.467163,807.478638 
	C969.243530,807.033569 972.553711,807.037720 975.861206,807.134399 
	C995.087280,807.696228 1012.940125,803.838501 1028.021606,791.006042 
z"/>
<path fill="#AD69DD" opacity="1.000000" stroke="none" 
	d="
M1026.677734,638.686890 
	C1026.999268,651.832275 1027.047974,664.783386 1026.954712,677.733459 
	C1026.938354,680.010132 1026.327759,682.282654 1025.588745,684.848511 
	C1006.429138,672.528625 985.294006,672.728210 964.000610,673.780334 
	C964.000671,660.964661 964.000671,648.148926 963.998047,634.903625 
	C984.916748,633.728516 1005.788696,633.750488 1026.677734,638.686890 
z"/>
<path fill="#FFFFFF" opacity="1.000000" stroke="none" 
	d="
M963.660034,673.900269 
	C985.294006,672.728210 1006.429138,672.528625 1025.510498,685.290039 
	C1037.994995,696.171326 1042.451904,710.434998 1043.666382,725.869019 
	C1044.843262,740.825378 1044.908203,755.953186 1039.677490,770.218628 
	C1037.053711,777.374268 1032.171509,783.701782 1028.166138,790.704956 
	C1012.940125,803.838501 995.087280,807.696228 975.861206,807.134399 
	C972.553711,807.037720 969.243530,807.033569 965.466248,807.012329 
	C955.670288,804.484741 954.231384,797.070557 954.211182,789.052734 
	C954.128784,756.411377 954.158569,723.769714 954.205688,691.128235 
	C954.209045,688.820740 954.608276,686.501953 954.959656,684.209290 
	C955.729431,679.185669 958.333740,675.611938 963.660034,673.900269 
z"/>
</svg>