<svg xmlns="http://www.w3.org/2000/svg" xml:space="preserve" width="2000" height="1500" viewBox="0 0 2000 1500" data-version="1" data-id="lg_1YTaHFBKyWQ79UplVe" x="0" y="0"><rect width="2000" height="1500" id="background" stroke="transparent" fill="#ffffff"></rect><g id="outer-wrapper" data-padding="20" transform="matrix(2.6785714285714284,0,0,2.6785714285714284,-1678.5714285714284,-1258.9285714285713)"><g id="inner-wrapper" transform="matrix(0.9642857142857143,0,0,0.9642857142857143,10,6.892857142857139)"><rect width="560" height="274.59" x="346.1666666666665" y="234.05268962962958" fill="none" rx="0" ry="0" transform="translate(400.5 343.51)"></rect><path fill="#3e3e3e" d="M828.0266666666666 594.8476896296296Q830.6966666666666 596.5576896296295 830.6966666666666 603.1176896296296Q830.6966666666666 609.1876896296296 828.7566666666667 618.4276896296296Q827.7766666666666 624.2576896296296 827.7766666666666 624.9876896296296Q827.0566666666666 644.1776896296296 825.3466666666666 659.0076896296296Q820.7366666666667 703.2276896296296 814.6566666666666 730.4476896296296Q811.4966666666667 744.5376896296295 808.9466666666666 753.4076896296295T801.0466666666666 771.5176896296296Q795.7066666666666 780.7476896296296 787.6866666666666 784.6376896296296Q784.5266666666666 786.0976896296296 782.0966666666666 786.0976896296296Q775.2966666666666 786.0976896296296 773.1066666666666 776.2476896296296Q770.9166666666666 766.4076896296295 770.9166666666666 751.3476896296296V745.5076896296296Q770.9166666666666 744.0576896296296 771.0366666666666 742.1076896296296Q771.1666666666666 740.1676896296296 770.9166666666666 738.2176896296296Q768.9766666666666 705.6576896296297 763.3866666666665 667.2676896296297Q760.2266666666666 643.9376896296296 758.5266666666666 633.4876896296297Q757.0666666666666 624.2576896296297 757.0666666666666 619.8776896296297Q757.0666666666666 611.3776896296297 761.6866666666666 604.8176896296296Q764.3566666666666 600.9276896296296 767.8766666666666 598.0076896296297Q771.4066666666665 595.0976896296297 774.8066666666666 595.0976896296297Q777.7266666666666 595.0976896296297 779.6666666666666 597.7676896296297Q781.3666666666666 599.9576896296296 782.0966666666666 603.8476896296297Q782.8266666666666 607.7276896296296 783.3166666666666 614.5376896296297Q783.3166666666666 617.6976896296296 783.7966666666666 621.0976896296297Q785.7466666666666 633.0076896296297 789.3866666666665 651.4676896296296Q794.2466666666667 674.0676896296296 796.1866666666666 689.1376896296297Q796.6766666666666 683.3076896296296 797.1666666666666 672.1276896296297Q797.6466666666665 658.2776896296297 798.6166666666666 648.0676896296296Q799.5966666666666 637.8676896296297 801.7766666666666 627.8976896296297Q802.5066666666665 623.5276896296297 805.7866666666666 615.1476896296297Q809.0666666666666 606.7576896296297 813.8066666666666 600.0776896296296T823.6466666666665 593.3976896296297Q825.8366666666666 593.3976896296297 828.0266666666666 594.8476896296296M851.0966666666666 651.9576896296296Q851.3466666666666 647.0976896296296 858.1466666666665 643.3276896296296Q864.9466666666666 639.5676896296296 871.7566666666667 639.5676896296296Q875.6466666666665 639.5676896296296 878.0766666666666 641.1476896296297T880.2566666666667 646.1276896296297L873.2166666666666 778.0776896296296Q872.9666666666666 783.1776896296296 866.1666666666666 786.9476896296296Q859.3566666666666 790.7076896296296 852.5566666666666 790.7076896296296Q843.5666666666666 790.7076896296296 843.8066666666666 783.6676896296296ZM850.6166666666666 619.8776896296297Q850.1266666666666 623.2876896296297 852.4366666666666 624.9876896296297T858.6366666666665 626.6876896296296Q865.1966666666666 626.6876896296296 871.9966666666666 623.0376896296297Q878.7966666666666 619.3976896296297 879.5266666666665 614.2876896296297Q881.4766666666666 602.1376896296297 882.2066666666665 596.0676896296296Q883.1766666666665 589.9876896296296 874.6666666666665 589.9876896296296Q868.1066666666666 589.9876896296296 861.0666666666666 593.6376896296297Q854.0166666666665 597.2776896296297 853.5266666666665 601.8976896296297ZM985.4766666666666 626.9276896296296Q988.1466666666665 624.9876896296297 992.0366666666666 623.5276896296297T999.3266666666666 622.0676896296296Q1002.0066666666667 622.0676896296296 1004.1866666666666 623.5276896296297Q1007.1066666666666 625.4676896296296 1007.1066666666666 628.8676896296297Q1007.1066666666666 633.0076896296297 1003.2166666666667 636.4076896296297Q991.3066666666666 646.8576896296297 983.8966666666666 662.0376896296297Q976.4866666666667 677.2276896296297 969.1966666666667 699.0976896296297Q959.7166666666667 728.0176896296297 946.8366666666666 777.0976896296297Q945.6266666666667 781.2376896296297 938.5766666666666 785.7276896296297Q931.5366666666666 790.2276896296297 925.4566666666667 790.2276896296297Q920.1066666666666 790.2276896296297 918.4066666666666 785.6076896296297Q895.8066666666666 721.2076896296297 894.3566666666666 644.6676896296296Q894.1066666666666 639.5676896296296 901.7666666666667 634.9476896296296Q909.4166666666666 630.3276896296296 916.2266666666667 630.3276896296296Q923.2666666666667 630.3276896296296 923.2666666666667 635.6776896296296Q923.2666666666667 680.6276896296297 933.2366666666667 724.6176896296297Q939.5466666666666 703.2276896296297 945.3866666666667 688.1676896296296Q953.4066666666666 666.5376896296297 962.3966666666666 651.3476896296297T985.4766666666667 626.9276896296296M1009.2966666666666 651.9576896296297Q1009.5366666666666 647.0976896296297 1016.3366666666666 643.3276896296297Q1023.1466666666666 639.5676896296297 1029.9466666666667 639.5676896296297Q1033.8366666666666 639.5676896296297 1036.2666666666667 641.1476896296297T1038.4566666666667 646.1276896296297L1031.4066666666668 778.0776896296297Q1031.1666666666665 783.1776896296298 1024.3566666666666 786.9476896296297Q1017.5566666666666 790.7076896296297 1010.7466666666667 790.7076896296297Q1001.7566666666667 790.7076896296297 1002.0066666666667 783.6676896296296ZM1008.8066666666666 619.8776896296297Q1008.3166666666666 623.2876896296298 1010.6266666666666 624.9876896296297T1016.8266666666666 626.6876896296297Q1023.3866666666665 626.6876896296297 1030.1866666666665 623.0376896296298Q1036.9966666666667 619.3976896296297 1037.7266666666667 614.2876896296298Q1039.6666666666665 602.1376896296297 1040.3966666666665 596.0676896296297Q1041.3666666666668 589.9876896296297 1032.8666666666668 589.9876896296297Q1026.3066666666666 589.9876896296297 1019.2566666666667 593.6376896296297Q1012.2066666666667 597.2776896296297 1011.7266666666667 601.8976896296297ZM1076.3666666666666 740.6376896296297Q1101.8866666666665 720.9576896296297 1116.4666666666667 698.8476896296297Q1097.0266666666666 693.0176896296297 1077.3466666666666 675.2776896296297Q1076.8566666666666 697.3876896296297 1076.3666666666666 740.6376896296297M1146.5966666666666 685.4776896296297Q1148.2966666666666 686.6976896296297 1148.2966666666666 688.6376896296297Q1148.2966666666666 690.3376896296297 1147.3266666666666 692.0376896296297Q1134.4466666666667 716.8276896296297 1113.3066666666666 736.0276896296297Q1092.1666666666665 755.2176896296297 1062.0366666666666 774.4176896296296Q1059.1166666666666 776.1176896296297 1055.4766666666667 777.4576896296297Q1051.8266666666666 778.7976896296296 1048.4266666666667 778.7976896296296Q1044.7766666666666 778.7976896296296 1042.1066666666666 776.8476896296297Q1039.1866666666665 774.6576896296297 1039.1866666666665 771.5076896296297Q1039.1866666666665 767.3676896296297 1043.8066666666666 764.2176896296297Q1044.2966666666666 763.9676896296297 1044.7766666666666 763.4876896296297Q1045.2666666666667 762.9976896296297 1046.2366666666667 762.5076896296297L1047.2066666666667 702.2476896296297Q1047.6966666666667 682.5676896296296 1048.1866666666667 642.2276896296297Q1047.9366666666667 641.7376896296297 1047.9366666666667 640.5276896296297Q1047.9366666666667 640.0376896296297 1048.4266666666667 638.0976896296297V635.4276896296296Q1048.6666666666667 630.8076896296296 1054.7466666666667 627.5276896296297Q1060.8166666666666 624.2476896296297 1067.6266666666666 624.2476896296297Q1072.2366666666667 624.2476896296297 1075.0366666666666 625.9476896296296Q1077.8266666666668 627.6476896296297 1077.8266666666668 631.2876896296297V633.7176896296297Q1107.2266666666667 674.3076896296297 1141.9766666666667 683.2976896296296Q1145.6266666666666 684.5076896296297 1146.5966666666668 685.4776896296297M1178.4166666666667 589.9876896296297Q1178.9066666666668 585.3776896296297 1186.1966666666667 581.6076896296297T1200.0466666666666 577.8376896296297Q1207.8266666666668 577.8376896296297 1207.5766666666668 583.6776896296296Q1203.6966666666667 627.1676896296296 1194.6966666666667 703.7176896296297Q1188.8666666666668 755.9576896296297 1187.1666666666667 771.5176896296297Q1186.6866666666667 776.6176896296297 1179.5166666666669 780.6276896296297T1165.5366666666669 784.6376896296297Q1156.0666666666666 784.6376896296297 1156.7966666666666 777.5876896296297Q1165.2966666666666 693.9976896296297 1178.4166666666667 589.9876896296297M1263.4666666666667 643.4376896296297Q1262.9866666666667 638.3376896296297 1269.9066666666668 634.3276896296297Q1276.8366666666666 630.3176896296297 1283.6366666666668 630.3176896296297Q1291.1766666666667 630.3176896296297 1291.8966666666668 635.4276896296298Q1297.246666666667 674.3076896296297 1300.1666666666667 702.2476896296297Q1303.0766666666668 730.1976896296297 1303.0766666666668 757.6476896296297Q1303.0766666666668 794.5876896296297 1297.2466666666667 823.0176896296297Q1292.6266666666666 845.6176896296297 1283.8866666666668 863.5976896296297Q1275.1366666666668 881.5776896296297 1259.8266666666668 891.5476896296298Q1247.1866666666667 899.5676896296297 1234.3066666666668 899.5676896296297Q1222.4066666666668 899.5676896296297 1210.9866666666667 893.3676896296297Q1199.5566666666668 887.1676896296296 1189.5966666666668 876.4776896296297Q1187.6566666666668 874.0476896296296 1187.6566666666668 872.3476896296297Q1187.6566666666668 867.4876896296297 1194.5766666666666 863.2376896296297Q1201.5066666666667 858.9876896296297 1208.5566666666666 858.9876896296297Q1213.4166666666665 858.9876896296297 1216.0866666666666 861.6576896296297Q1217.2966666666666 862.8676896296297 1221.9166666666665 867.7276896296297T1231.5166666666667 875.9976896296297Q1236.4966666666667 879.3976896296297 1240.6266666666666 879.3976896296297Q1242.8166666666666 879.3976896296297 1243.7866666666666 878.9076896296297Q1248.4066666666668 877.2076896296296 1251.9266666666667 870.8876896296297T1257.6366666666668 859.2276896296296Q1259.8266666666668 853.8776896296296 1260.3066666666666 852.6676896296296Q1266.1466666666665 838.0876896296296 1268.8166666666666 821.9276896296296T1272.4566666666665 785.8376896296296Q1272.9466666666667 770.2876896296295 1272.9466666666667 762.2676896296296Q1266.6266666666666 773.6876896296296 1258.1266666666666 780.1276896296296Q1249.6166666666666 786.5676896296296 1237.4666666666667 786.5676896296296Q1220.2166666666667 786.5676896296296 1214.9866666666667 771.1376896296296Q1209.7666666666664 755.7076896296296 1209.5266666666666 733.3476896296296L1209.2766666666666 723.6276896296296Q1209.2766666666666 685.7276896296296 1217.0566666666664 652.4376896296295Q1218.0266666666666 647.8176896296295 1225.3166666666666 644.1676896296295Q1232.6066666666666 640.5276896296295 1239.1666666666665 640.5276896296295Q1242.5766666666664 640.5276896296295 1244.5166666666664 641.9876896296296Q1246.4566666666665 643.4376896296295 1245.9766666666665 646.1176896296296Q1240.3866666666665 674.3076896296295 1238.9266666666667 707.1076896296296Q1238.4366666666665 717.3176896296295 1238.4366666666665 722.9076896296295Q1238.4366666666665 732.1376896296296 1239.6566666666668 743.5576896296295Q1241.1166666666668 753.7676896296296 1243.0566666666666 758.1376896296296L1245.0066666666667 762.0276896296295Q1246.7066666666667 758.8676896296295 1249.6166666666668 752.5476896296295Q1255.6966666666667 736.9976896296295 1259.3366666666666 715.1276896296295L1261.5266666666666 703.2176896296295Q1266.1466666666668 681.5976896296295 1266.1466666666668 668.9576896296295Q1266.1466666666668 662.6376896296294 1265.6566666666668 659.4776896296295Z "></path><rect width="45.729" height="121.298" x="-216.27425501543217" y="265.4794722222221" fill="none" stroke="#3e3e3e" stroke-width="2" rx="22" ry="22" transform="matrix(0 -1.92 1.92 0 400.96 548.45)"></rect><rect width="161.828" height="51.98" x="545.2526666666668" y="345.3576896296295" fill="none" rx="0" ry="0" transform="translate(400.51 549.87)"></rect><path fill="#3e3e3e" d="M959.3266666666668 927.6176896296296Q974.2766666666668 926.7876896296295 982.5166666666668 925.7776896296295Q981.7266666666667 928.1676896296295 981.3166666666668 930.8376896296295T980.9066666666668 935.6676896296295H948.0166666666668L947.9666666666667 934.6976896296295Q947.9666666666667 930.1976896296295 950.6066666666668 926.8776896296295Q953.2566666666667 923.5676896296295 957.9966666666667 920.7676896296294Q959.3766666666668 919.9376896296294 962.3166666666667 918.6476896296294Q966.1366666666668 916.9876896296295 968.2066666666667 915.7276896296295Q970.2766666666666 914.4576896296295 970.2766666666666 913.2176896296295Q970.2766666666666 911.6576896296295 968.9866666666667 910.7376896296295T964.9866666666667 909.8176896296295Q961.9966666666667 909.8176896296295 960.4566666666667 911.3376896296295Q958.9166666666667 912.8476896296295 958.9166666666667 915.1976896296295Q958.9166666666667 915.9376896296295 959.0566666666666 916.7176896296295Q953.2566666666667 915.9776896296295 947.7866666666666 915.7076896296295Q947.7866666666666 911.7976896296295 949.8266666666667 908.6376896296294Q951.8766666666668 905.4876896296295 955.9966666666667 903.6476896296294Q960.1066666666668 901.8076896296294 966.0866666666667 901.8076896296294Q971.5666666666667 901.8076896296294 975.2166666666667 903.3076896296294Q978.8766666666668 904.7976896296294 980.6066666666667 907.0776896296294Q982.3266666666667 909.3576896296294 982.3266666666667 911.7476896296293Q982.3266666666667 914.5076896296293 981.1066666666667 916.4876896296294T977.6166666666667 920.0076896296293Q975.3366666666667 921.5476896296293 971.5166666666667 923.3376896296294Q970.9666666666667 923.6176896296294 969.7266666666667 923.9576896296294Q968.4866666666667 924.3076896296294 968.1566666666666 924.3976896296294Q964.8966666666666 925.3676896296295 962.9666666666667 926.0076896296295Q961.0266666666666 926.6476896296294 959.3266666666666 927.6176896296295M1005.4666666666667 936.1276896296295Q995.5766666666666 936.1276896296295 990.8866666666667 931.5776896296295Q986.1966666666667 927.0176896296296 986.1966666666667 918.9276896296295Q986.1966666666667 910.8776896296296 990.9066666666666 906.3376896296295Q995.6266666666667 901.8076896296295 1005.4666666666667 901.8076896296295T1020.0066666666667 906.3376896296295Q1024.6966666666667 910.8776896296295 1024.6966666666667 918.9276896296295Q1024.6966666666667 927.0176896296296 1020.0066666666667 931.5776896296295Q1015.3066666666666 936.1276896296295 1005.4666666666667 936.1276896296295M1005.5166666666667 928.0776896296295Q1009.7466666666667 928.0776896296295 1011.6766666666667 925.4776896296295T1013.6066666666667 918.9276896296295Q1013.6066666666667 915.0176896296296 1011.6766666666667 912.4176896296295T1005.5166666666667 909.8176896296295Q1001.1466666666666 909.8176896296295 999.1866666666667 912.4176896296295Q997.2366666666667 915.0176896296296 997.2366666666667 918.9276896296295T999.1866666666667 925.4576896296295Q1001.1466666666666 928.0776896296295 1005.5166666666667 928.0776896296295M1039.9266666666667 927.6176896296295Q1054.8766666666666 926.7876896296294 1063.1166666666666 925.7776896296294Q1062.3366666666666 928.1676896296294 1061.9166666666665 930.8376896296294Q1061.5066666666667 933.5076896296293 1061.5066666666667 935.6676896296294H1028.6166666666666L1028.5666666666666 934.6976896296294Q1028.5666666666666 930.1976896296294 1031.2166666666667 926.8776896296293Q1033.8566666666666 923.5676896296294 1038.5966666666666 920.7676896296293Q1039.9766666666665 919.9376896296293 1042.9166666666665 918.6476896296293Q1046.7366666666667 916.9876896296294 1048.8066666666666 915.7276896296294Q1050.8766666666666 914.4576896296294 1050.8766666666666 913.2176896296294Q1050.8766666666666 911.6576896296294 1049.5866666666666 910.7376896296294Q1048.3066666666666 909.8176896296294 1045.5866666666666 909.8176896296294Q1042.5966666666666 909.8176896296294 1041.0566666666666 911.3376896296294Q1039.5166666666664 912.8476896296294 1039.5166666666664 915.1976896296294Q1039.5166666666664 915.9376896296294 1039.6566666666665 916.7176896296294Q1033.8566666666666 915.9776896296294 1028.3866666666665 915.7076896296294Q1028.3866666666665 911.7976896296294 1030.4266666666665 908.6376896296293Q1032.4766666666665 905.4876896296294 1036.5966666666666 903.6476896296293T1046.6966666666667 901.8076896296293Q1052.1666666666665 901.8076896296293 1055.8266666666666 903.3076896296293Q1059.4766666666665 904.7976896296293 1061.2066666666665 907.0776896296293Q1062.9266666666667 909.3576896296292 1062.9266666666667 911.7476896296292Q1062.9266666666667 914.5076896296292 1061.7066666666665 916.4876896296292Q1060.4966666666667 918.4676896296293 1058.2166666666667 920.0076896296292T1052.1166666666666 923.3376896296293Q1051.5666666666666 923.6176896296292 1050.3266666666666 923.9576896296293L1048.7666666666664 924.3976896296293Q1045.4966666666664 925.3676896296294 1043.5666666666666 926.0076896296293T1039.9266666666665 927.6176896296294M1099.3566666666666 921.1776896296293H1105.6066666666666V929.8276896296293H1099.3566666666666V935.6676896296293H1088.3566666666666Q1088.5466666666666 933.7376896296294 1088.6366666666665 929.8276896296293H1066.7866666666664V920.5376896296293Q1077.5066666666667 912.2976896296293 1085.9166666666665 902.2676896296293H1099.3566666666666ZM1088.7266666666665 921.1776896296293L1088.8666666666666 911.3776896296293Q1085.6866666666665 914.6476896296293 1083.3866666666665 916.8276896296294Q1081.0866666666666 919.0176896296294 1078.1966666666665 921.1776896296294Z "></path></g><rect width="560" height="386" x="720" y="557" id="space-saver" fill="transparent" stroke="transparent"></rect></g></svg>